# xmcd
#
# Track frame offsets: 
#        150
#        22075
#        55658
#        81211
#        105954
#        143171
#        164490
#        196127
#        219945
#        246640
#        277550
#
# Disc length: 3984 seconds
#
# Revision: 1
# Processed by: cddbd v1.5.2PL0 Copyright (c) Steve Scherf et al.
# Submitted via: ExactAudioCopy v1.2
#
DISCID=8f0f8e0b
DTITLE=Kenny Barron Quintet - Concentric Circles
DYEAR=2017
DGENRE=Jazz
TTITLE0=DPW
TTITLE1=Concentric Circles
TTITLE2=Blue Waters
TTITLE3=A Short Journey
TTITLE4=Aquele Frevo Axe
TTITLE5=Von Hangman
TTITLE6=In The Dark
TTITLE7=Baile
TTITLE8=L's Bop
TTITLE9=I'm Just Sayin'
TTITLE10=Reflections
EXTD=YEAR: 2017
EXTT0=
EXTT1=
EXTT2=
EXTT3=
EXTT4=
EXTT5=
EXTT6=
EXTT7=
EXTT8=
EXTT9=
EXTT10=
PLAYORDER=
